<svg xmlns="http://www.w3.org/2000/svg" width="800" height="178" viewBox="0 0 800 178">
  <style>
text { font-family: -apple-system, BlinkMacSystemFont, "Segoe UI", Helvetica, Arial, sans-serif; }
.title { font-size: 16px; font-weight: 600; fill: #24292f; }
.label { font-size: 12px; fill: #24292f; }
.value { font-size: 11px; fill: #57606a; }
.axis-label { font-size: 11px; fill: #57606a; }
.grid { stroke: #d0d7de; stroke-width: 0.5; }
</style>
  <rect width="100%" height="100%" fill="white"/>
  <text x="400.0" y="30" text-anchor="middle" class="title">Pack Create Wallclock — 10 × 1 MiB (ops/s — higher is better)</text>
  <line x1="200.0" y1="52.0" x2="200.0" y2="138.0" class="grid"/>
  <text x="200.0" y="152.0" text-anchor="middle" class="axis-label">0</text>
  <line x1="304.0" y1="52.0" x2="304.0" y2="138.0" class="grid"/>
  <text x="304.0" y="152.0" text-anchor="middle" class="axis-label">2</text>
  <line x1="408.0" y1="52.0" x2="408.0" y2="138.0" class="grid"/>
  <text x="408.0" y="152.0" text-anchor="middle" class="axis-label">4</text>
  <line x1="512.0" y1="52.0" x2="512.0" y2="138.0" class="grid"/>
  <text x="512.0" y="152.0" text-anchor="middle" class="axis-label">6</text>
  <line x1="616.0" y1="52.0" x2="616.0" y2="138.0" class="grid"/>
  <text x="616.0" y="152.0" text-anchor="middle" class="axis-label">8</text>
  <line x1="720.0" y1="52.0" x2="720.0" y2="138.0" class="grid"/>
  <text x="720.0" y="152.0" text-anchor="middle" class="axis-label">10</text>
  <text x="460.0" y="168.0" text-anchor="middle" class="axis-label">ops/s</text>
  <text x="190.0" y="77.2" text-anchor="end" class="label">mkit (BLAKE3)</text>
  <rect x="200.0" y="60.0" width="514.0" height="18.2" rx="2" fill="#4C78A8"/>
  <text x="722.0" y="77.2" class="value">10 (101 ms)</text>
  <text x="190.0" y="103.2" text-anchor="end" class="label">git2 (libgit2)</text>
  <rect x="200.0" y="86.0" width="292.8" height="18.2" rx="2" fill="#E45756"/>
  <text x="500.8" y="103.2" class="value">6 (178 ms)</text>
  <text x="190.0" y="129.2" text-anchor="end" class="label">git pack-objects</text>
  <rect x="200.0" y="112.0" width="103.9" height="18.2" rx="2" fill="#9D7660"/>
  <text x="311.9" y="129.2" class="value">2 (500 ms)</text>
</svg>
